<svg width="280" height="280" viewBox="0 0 280 280" fill="none" xmlns="http://www.w3.org/2000/svg">
<g filter="url(#filter0_d_1379_19118)">
<path d="M140 235C127.524 235 115.171 232.543 103.645 227.769C92.1191 222.994 81.6464 215.997 72.8248 207.175C64.0033 198.354 57.0056 187.881 52.2314 176.355C47.4572 164.829 45 152.476 45 140C45 127.524 47.4572 115.171 52.2314 103.645C57.0056 92.1191 64.0033 81.6464 72.8249 72.8248C81.6464 64.0033 92.1191 57.0056 103.645 52.2314C115.171 47.4572 127.524 45 140 45C152.476 45 164.829 47.4572 176.355 52.2314C187.881 57.0056 198.354 64.0033 207.175 72.8249C215.997 81.6464 222.994 92.1192 227.769 103.645C232.543 115.171 235 127.524 235 140C235 152.476 232.543 164.829 227.769 176.355C222.994 187.881 215.997 198.354 207.175 207.175C198.354 215.997 187.881 222.994 176.355 227.769C164.829 232.543 152.476 235 140 235L140 235Z" stroke="#D7D8DB" stroke-width="2" stroke-linecap="round"/>
</g>
<defs>
<filter id="filter0_d_1379_19118" x="38" y="38" width="204" height="204" filterUnits="userSpaceOnUse" color-interpolation-filters="sRGB">
<feFlood flood-opacity="0" result="BackgroundImageFix"/>
<feColorMatrix in="SourceAlpha" type="matrix" values="0 0 0 0 0 0 0 0 0 0 0 0 0 0 0 0 0 0 127 0" result="hardAlpha"/>
<feOffset/>
<feGaussianBlur stdDeviation="3"/>
<feComposite in2="hardAlpha" operator="out"/>
<feColorMatrix type="matrix" values="0 0 0 0 1 0 0 0 0 1 0 0 0 0 1 0 0 0 0.2 0"/>
<feBlend mode="normal" in2="BackgroundImageFix" result="effect1_dropShadow_1379_19118"/>
<feBlend mode="normal" in="SourceGraphic" in2="effect1_dropShadow_1379_19118" result="shape"/>
</filter>
</defs>
</svg>
