<svg width="280" height="280" viewBox="0 0 280 280" fill="none" xmlns="http://www.w3.org/2000/svg">
<g opacity="0.1" filter="url(#filter0_d_1379_19115)">
<path d="M235 140C235 152.476 232.543 164.829 227.769 176.355C222.994 187.881 215.997 198.354 207.175 207.175C198.354 215.997 187.881 222.994 176.355 227.769C164.829 232.543 152.476 235 140 235C127.524 235 115.171 232.543 103.645 227.769C92.1191 222.994 81.6464 215.997 72.8249 207.175C64.0033 198.354 57.0056 187.881 52.2314 176.355C47.4572 164.829 45 152.476 45 140C45 127.524 47.4572 115.171 52.2314 103.645C57.0056 92.1191 64.0033 81.6464 72.8249 72.8248C81.6464 64.0033 92.1192 57.0056 103.645 52.2314C115.171 47.4572 127.524 45 140 45C152.476 45 164.829 47.4573 176.355 52.2314C187.881 57.0056 198.354 64.0033 207.175 72.8249C215.997 81.6464 222.994 92.1192 227.769 103.645C232.543 115.171 235 127.524 235 140L235 140Z" stroke="#FBB36A"/>
</g>
<g filter="url(#filter1_d_1379_19115)">
<path d="M140 235C126.016 235 112.204 231.913 99.551 225.959C86.8977 220.004 75.7151 211.33 66.8012 200.555C57.8874 189.78 51.4623 177.17 47.9846 163.626C44.5069 150.081 44.0623 135.935 46.6827 122.199C49.3031 108.462 54.9237 95.4738 63.1434 84.1604C71.363 72.847 81.979 63.4878 94.2334 56.7509C106.488 50.014 120.078 46.0655 134.035 45.1875C147.991 44.3094 161.97 46.5233 174.972 51.6712" stroke="#D7D8DB" stroke-width="2" stroke-linecap="round"/>
</g>
<defs>
<filter id="filter0_d_1379_19115" x="38.5" y="38.5" width="203" height="203" filterUnits="userSpaceOnUse" color-interpolation-filters="sRGB">
<feFlood flood-opacity="0" result="BackgroundImageFix"/>
<feColorMatrix in="SourceAlpha" type="matrix" values="0 0 0 0 0 0 0 0 0 0 0 0 0 0 0 0 0 0 127 0" result="hardAlpha"/>
<feOffset/>
<feGaussianBlur stdDeviation="3"/>
<feComposite in2="hardAlpha" operator="out"/>
<feColorMatrix type="matrix" values="0 0 0 0 0.984314 0 0 0 0 0.717647 0 0 0 0 0.317647 0 0 0 1 0"/>
<feBlend mode="normal" in2="BackgroundImageFix" result="effect1_dropShadow_1379_19115"/>
<feBlend mode="normal" in="SourceGraphic" in2="effect1_dropShadow_1379_19115" result="shape"/>
</filter>
<filter id="filter1_d_1379_19115" x="38" y="38" width="143.973" height="204" filterUnits="userSpaceOnUse" color-interpolation-filters="sRGB">
<feFlood flood-opacity="0" result="BackgroundImageFix"/>
<feColorMatrix in="SourceAlpha" type="matrix" values="0 0 0 0 0 0 0 0 0 0 0 0 0 0 0 0 0 0 127 0" result="hardAlpha"/>
<feOffset/>
<feGaussianBlur stdDeviation="3"/>
<feComposite in2="hardAlpha" operator="out"/>
<feColorMatrix type="matrix" values="0 0 0 0 0.988235 0 0 0 0 0.301961 0 0 0 0 0.0705883 0 0 0 0.49 0"/>
<feBlend mode="normal" in2="BackgroundImageFix" result="effect1_dropShadow_1379_19115"/>
<feBlend mode="normal" in="SourceGraphic" in2="effect1_dropShadow_1379_19115" result="shape"/>
</filter>
</defs>
</svg>
