<?xml version="1.0" standalone="no"?>
<!DOCTYPE svg PUBLIC "-//W3C//DTD SVG 20010904//EN"
 "http://www.w3.org/TR/2001/REC-SVG-20010904/DTD/svg10.dtd">
<svg version="1.0" xmlns="http://www.w3.org/2000/svg"
 width="256.000000pt" height="256.000000pt" viewBox="0 0 256.000000 256.000000"
 preserveAspectRatio="xMidYMid meet">

<g transform="translate(0.000000,256.000000) scale(0.100000,-0.100000)"
fill="#000000" stroke="none">
<path d="M1216 2523 c-3 -21 -8 -91 -12 -156 -3 -64 -10 -120 -15 -123 -5 -3
-9 -13 -9 -23 0 -26 -48 -71 -76 -71 -13 0 -24 -4 -24 -9 0 -5 -10 -11 -22
-13 -16 -2 -24 -11 -26 -30 -3 -22 -9 -27 -43 -33 -21 -4 -39 -10 -39 -15 0
-4 -29 -13 -65 -20 -36 -7 -65 -16 -65 -21 0 -4 -20 -11 -45 -15 -40 -6 -47
-11 -65 -48 -36 -72 -51 -96 -60 -96 -5 0 -17 -14 -25 -31 -14 -25 -21 -30
-47 -27 -27 3 -32 -1 -46 -36 -9 -22 -31 -53 -49 -69 -18 -16 -33 -34 -33 -40
0 -5 -13 -37 -29 -71 -15 -34 -31 -71 -35 -83 -4 -13 -11 -23 -15 -23 -4 0
-15 -24 -26 -52 -10 -29 -21 -57 -25 -63 -4 -5 -13 -34 -21 -62 -7 -29 -16
-53 -20 -53 -11 0 -31 -154 -35 -274 l-4 -110 -43 -45 c-24 -26 -65 -63 -92
-84 -119 -89 -132 -113 -57 -102 26 4 52 11 57 15 16 14 144 32 169 24 22 -7
66 -49 66 -64 0 -5 52 -63 116 -130 l117 -121 -6 -96 c-4 -52 -11 -101 -17
-108 -12 -14 -27 -145 -16 -145 3 0 19 11 35 25 18 17 34 47 46 88 9 34 21 71
26 82 5 11 13 32 19 48 5 15 16 27 25 27 8 0 15 5 15 10 0 16 43 12 86 -9 126
-60 153 -71 177 -71 15 0 27 -4 27 -8 0 -4 62 -16 138 -27 75 -10 141 -22 147
-27 12 -11 121 -10 143 1 9 5 44 15 77 21 33 7 78 20 100 30 23 10 54 22 70
26 17 4 35 10 41 15 15 12 133 39 170 39 23 0 33 -5 37 -19 2 -10 17 -25 32
-32 18 -10 34 -31 49 -67 23 -57 87 -132 112 -132 15 0 16 10 9 82 -4 46 -10
85 -14 88 -8 5 -26 95 -37 188 -7 60 11 151 32 159 8 3 14 11 14 18 0 6 21 37
48 68 103 123 96 106 102 258 3 75 11 143 17 150 6 8 14 32 18 54 6 34 42 103
74 141 5 6 12 25 16 42 l7 32 -68 0 -67 0 6 47 c3 26 10 49 16 51 6 2 11 9 11
15 0 14 104 117 118 117 5 0 16 8 26 19 9 10 34 26 56 36 22 10 40 22 40 27 0
4 7 8 15 8 9 0 15 9 15 21 0 20 -3 21 -57 14 -32 -4 -62 -10 -68 -15 -18 -13
-145 -33 -177 -26 -17 3 -41 16 -52 29 -39 40 -104 94 -122 101 -13 5 -15 14
-10 45 6 41 -3 51 -44 51 -11 0 -39 19 -64 43 -45 43 -80 72 -151 126 -22 17
-47 36 -55 43 -8 7 -22 18 -30 23 -9 6 -32 20 -51 32 -28 19 -48 23 -111 23
-42 0 -80 5 -83 10 -3 6 -16 10 -28 10 -12 0 -29 6 -38 13 -27 20 -68 109 -80
172 -7 33 -16 65 -20 70 -4 6 -13 33 -19 60 -15 70 -29 95 -56 95 -18 0 -23
-7 -28 -37z m409 -738 c32 -16 75 -39 95 -52 19 -13 43 -29 54 -36 49 -32 113
-88 134 -116 35 -47 34 -81 -3 -100 -16 -9 -35 -21 -41 -27 -7 -6 -33 -17 -58
-24 -26 -7 -49 -17 -52 -21 -3 -5 -29 -9 -59 -9 -49 0 -56 3 -79 33 -14 18
-33 53 -41 78 -9 24 -22 58 -29 74 -8 17 -19 57 -26 90 -7 33 -16 62 -20 65
-4 3 -10 22 -14 44 l-7 39 43 -5 c24 -3 70 -18 103 -33z m-595 -1 c0 -9 -6
-30 -14 -47 -12 -27 -65 -193 -83 -262 -3 -11 -9 -24 -13 -30 -4 -5 -15 -41
-25 -80 -10 -38 -21 -74 -25 -80 -4 -5 -13 -35 -20 -65 -7 -30 -16 -57 -19
-60 -3 -3 -11 -14 -17 -24 -6 -11 -19 -24 -30 -30 -10 -6 -21 -14 -24 -17 -3
-3 -22 -12 -42 -20 -21 -7 -38 -16 -38 -20 0 -4 -31 -15 -70 -25 -38 -10 -70
-22 -70 -26 0 -4 -19 -8 -42 -8 l-41 0 6 98 c9 130 24 183 84 297 42 79 94
144 184 229 112 105 114 106 128 106 6 0 14 6 17 13 2 7 25 22 49 32 25 11 45
23 45 28 0 4 14 7 30 7 21 0 30 -5 30 -16z m239 -6 c7 -13 23 -41 36 -63 14
-22 35 -60 46 -85 12 -25 25 -47 29 -50 4 -3 13 -23 20 -45 7 -22 17 -45 22
-52 6 -7 12 -39 15 -73 5 -54 3 -62 -18 -84 -36 -35 -98 -63 -170 -76 -35 -6
-83 -15 -107 -21 -23 -5 -54 -9 -67 -9 -28 0 -43 23 -28 43 6 6 16 35 23 62 7
28 16 55 20 60 4 6 15 45 25 88 10 42 21 77 25 77 4 0 10 19 14 42 4 23 13 56
21 72 7 17 19 49 25 71 21 68 47 84 69 43z m807 -449 c8 -13 7 -261 -2 -329
-3 -25 -9 -54 -14 -65 -5 -11 -13 -48 -19 -82 -7 -34 -18 -76 -27 -95 -55
-123 -71 -133 -102 -66 -51 108 -71 158 -77 192 -4 20 -10 36 -14 36 -4 0 -13
21 -21 47 -7 26 -19 58 -26 72 -16 31 -39 155 -31 174 8 21 142 83 212 98 33
7 64 16 70 21 13 12 43 10 51 -3z m-514 -219 c37 -29 55 -74 67 -170 8 -64 19
-101 45 -150 78 -148 98 -196 103 -247 7 -66 -7 -95 -53 -113 -19 -8 -34 -17
-34 -21 0 -4 -21 -15 -47 -25 -27 -10 -50 -21 -53 -25 -16 -22 -77 -29 -259
-29 -197 0 -289 9 -346 34 -16 8 -45 17 -63 21 -18 4 -52 25 -75 47 l-42 40 1
89 c1 49 6 95 12 102 5 6 13 30 16 51 11 61 64 145 136 216 80 78 88 85 137
107 21 10 40 20 43 23 3 3 25 12 50 19 25 7 54 17 65 22 26 12 133 26 211 28
47 1 67 -4 86 -19z m-882 -286 c0 -30 -32 -154 -41 -159 -5 -4 -9 -16 -9 -29
0 -12 -6 -31 -14 -41 -14 -19 -15 -19 -49 -1 -34 19 -87 103 -87 138 0 33 68
88 109 88 12 0 21 5 21 10 0 6 16 10 35 10 25 0 35 -4 35 -16z"/>
</g>
</svg>
