<svg width="25" height="24" viewBox="0 0 25 24" fill="none" xmlns="http://www.w3.org/2000/svg">
<rect width="24" height="24" transform="translate(0.470215)" fill="#191919"/>
<path d="M7.04742 2.5V14.733L6.55085 14.7398C6.17584 14.7452 5.831 14.9642 5.65126 15.3113C5.48228 15.637 5.48703 16.02 5.66462 16.3357C5.85514 16.6746 6.21421 16.8849 6.60646 16.8849L7.04742 16.8827V19.8378L5.47021 21.5H16.893L18.4702 19.8378V2.5H7.04742Z" fill="#FFDD51"/>
<path d="M14.7253 7.10236C15.5618 7.10236 16.24 6.38764 16.24 5.506C16.24 4.62436 15.5618 3.90965 14.7253 3.90965C13.8887 3.90965 13.2106 4.62436 13.2106 5.506C13.2106 6.38764 13.8887 7.10236 14.7253 7.10236Z" fill="#191919"/>
<path d="M10.6479 6.84932L12.3316 6.91156C13.6385 6.96017 14.8804 7.52348 15.8114 8.49111L16.7817 9.49916C16.955 9.67906 17.1882 9.77991 17.4313 9.77991H18.4702C18.4702 10.1852 18.4702 10.5918 18.4702 11.0137H17.0912C16.7106 11.0137 16.3442 10.8611 16.0662 10.5867L14.9386 9.47327C14.8243 9.36061 14.6398 9.39059 14.5631 9.5346L13.4204 11.682C13.2816 11.9432 13.2717 12.2589 13.3945 12.5288L16.2515 18.7684C16.4765 19.264 16.1339 19.8378 15.6123 19.8378C15.3407 19.8378 15.0929 19.6742 14.9743 19.4162L11.8721 12.8695L11.279 15.8405C11.1975 16.2616 10.847 16.5647 10.4393 16.5674L6.60854 16.5855C6.03525 16.5883 5.63092 15.9977 5.90636 15.4676C6.03654 15.2168 6.28483 15.0592 6.55596 15.0551L9.35907 15.016C9.63795 15.011 9.87676 14.8029 9.93408 14.5154L10.4703 12.0645C10.5444 11.6911 10.6686 11.3308 10.8384 10.9942L12.0182 8.6551C12.1027 8.48747 11.9898 8.28486 11.8096 8.28168L10.5044 8.2576C10.2022 8.25215 9.91986 8.41569 9.76253 8.68826L8.9694 10.0625C8.8056 10.3459 8.46119 10.4468 8.1823 10.2928C7.87884 10.1252 7.77151 9.72313 7.94695 9.4133L8.79655 7.91325C9.1832 7.22865 9.8927 6.82161 10.6479 6.84932Z" fill="#191919"/>
<path d="M15.8654 20.0617C15.2365 19.9441 14.8408 20.2007 14.6339 20.4197L13.4976 21.5H15.18L16.0701 20.6423C16.2861 20.4093 16.2339 20.1408 15.8654 20.0617Z" fill="#191919"/>
</svg>
