<svg width="23" height="22" viewBox="0 0 23 22" fill="none" xmlns="http://www.w3.org/2000/svg">
<path d="M22.973 7.90646C22.9848 7.91397 22.9838 7.93152 22.9713 7.93772C22.8729 7.98639 22.7756 8.03755 22.6749 8.08191C21.9013 8.42301 21.1611 8.82021 20.5322 9.39094C20.3172 9.58601 20.1228 9.80746 19.9407 10.0341C19.768 10.2489 19.7103 10.5119 19.7129 10.785C19.7143 10.9076 19.8304 10.998 19.953 10.998H20.2141C20.5118 10.998 20.7653 11.2477 20.6607 11.5265C20.6026 11.6813 20.5181 11.823 20.4093 11.9514C20.1336 12.2765 20.0212 12.6629 19.8913 13.0509C19.7017 13.6164 19.689 14.1994 19.7339 14.7779C19.7808 15.3809 19.556 15.8617 19.1934 16.3102C18.9087 16.6625 18.633 17.0221 18.3498 17.3759C18.0595 17.7385 17.9512 18.148 17.9823 18.6084C18.0224 19.1984 18.1618 19.7673 18.2917 20.3417C18.3978 20.8106 18.4326 21.2951 18.4966 21.773C18.5084 21.859 18.4012 21.9161 18.3205 21.8838C18.2426 21.8526 18.1712 21.8221 18.1093 21.7782C17.7478 21.5222 17.5253 21.1573 17.3433 20.7653C17.2834 20.6362 17.2247 20.5065 17.1664 20.3774C17.1041 20.2395 16.9409 20.1267 16.8147 20.0431C16.6193 19.9136 16.4687 19.7595 16.2346 19.7741C15.9632 19.791 15.6946 19.836 15.4332 19.9259C14.7792 20.1507 14.124 20.3733 13.4793 20.6219C12.7609 20.8991 12.0173 20.9552 11.2689 20.8656C10.5523 20.7798 9.84393 20.6252 9.13145 20.5052C8.89246 20.4651 8.65047 20.4413 8.41036 20.4052C8.3508 20.3963 8.29161 20.3733 8.23692 20.3469C7.80539 20.1381 7.37911 19.9181 6.94345 19.7182C6.47109 19.5016 6.10624 19.6562 5.9313 20.137C5.85938 20.3346 5.81668 20.5424 5.747 20.7408C5.64062 21.0436 5.52936 21.3457 5.40687 21.6422C5.3986 21.6622 5.38963 21.6813 5.37994 21.6995C5.2153 22.0089 4.82935 21.6832 4.88918 21.3379C4.95586 20.954 5.06824 20.5765 5.10907 20.1905C5.14953 19.8048 5.12967 19.4124 5.12518 19.0234C5.12443 18.9669 5.07199 18.9015 5.02741 18.8562C4.70788 18.5337 4.38835 18.2112 4.06096 17.8968C3.71446 17.5639 3.3777 17.2198 3.14621 16.7992C2.93568 16.4169 2.60679 16.3622 2.24231 16.4328C1.6557 16.5465 1.07621 16.6944 0.493713 16.8289C0.348032 16.8626 0.203333 16.9002 0.0583917 16.9362C0.0405883 16.9407 0.0220705 16.9324 0.0134824 16.9162C0.00542974 16.901 0.0080028 16.8823 0.0198447 16.8698C0.0893208 16.7966 0.154218 16.7277 0.232247 16.6632C0.673143 16.2991 1.12415 15.9465 1.5598 15.5764C1.81977 15.3553 2.06213 15.113 2.30262 14.8708C2.35094 14.8221 2.38129 14.7288 2.37642 14.659C2.2558 12.9282 2.66111 11.3041 3.38557 9.74541C3.63033 9.21861 3.88264 8.69521 4.13803 8.16263C4.26833 7.89091 4.59961 7.71583 4.72594 7.44224C4.75976 7.36899 4.78925 7.29092 4.82663 7.22174C4.88343 7.11657 4.92842 7.00517 4.97397 6.88913C5.01339 6.78871 5.13931 6.75973 5.21776 6.83379C5.27813 6.89079 5.37454 6.89163 5.43641 6.83627C5.5124 6.76826 5.58665 6.70149 5.64249 6.62203C5.9137 6.23709 6.18041 5.84844 6.42726 5.44826C6.54114 5.26359 6.66775 5.14766 6.88577 5.0871C7.60961 4.88602 8.32662 4.66172 9.04067 4.44712C9.06823 4.43884 9.10299 4.42461 9.10598 4.39599C9.15917 3.97017 9.19401 3.9345 9.62779 3.86391C10.0897 3.78885 10.3807 3.54362 10.4586 3.0799C10.5362 2.61731 10.559 2.14542 10.6043 1.67725C10.6422 1.28301 10.6703 0.887669 10.7171 0.494553C10.7574 0.155742 11.2046 0.235846 11.3101 0.56032C11.461 1.02515 11.5809 1.49964 11.7278 1.96595C11.854 2.3665 11.987 2.76593 12.1398 3.15719C12.3443 3.68147 12.7628 3.90366 13.3119 3.91295C13.5243 3.91667 13.7367 3.9241 13.9487 3.91481C14.2083 3.90366 14.4495 3.96014 14.6574 4.10802C15.2197 4.50857 15.7872 4.9028 16.3281 5.33047C16.6762 5.60587 16.9986 5.91341 17.338 6.22528C17.4671 6.34389 17.6561 6.36971 17.8238 6.4207C17.8846 6.43919 17.944 6.46737 18.0029 6.50108C18.1244 6.57062 18.1629 6.72324 18.1012 6.84888C18.0276 6.99874 18.0987 7.18206 18.242 7.26769C18.5512 7.45243 18.7938 7.71312 19.0585 7.94555C19.1705 8.04364 19.2908 8.13319 19.4095 8.22348C19.6332 8.39366 19.8808 8.42896 20.1527 8.36096C20.6786 8.22943 21.2042 8.09603 21.7339 7.98196C22.1447 7.89342 22.5336 7.84447 22.9659 7.90384C22.9684 7.90419 22.9709 7.90509 22.973 7.90646ZM11.8598 19.2536C11.8599 19.2535 11.8601 19.2534 11.8603 19.2534C12.2906 19.2534 12.7209 19.2582 13.1512 19.2504C13.2662 19.2482 13.3928 19.2315 13.4936 19.1809C14.033 18.9108 14.5758 18.6459 15.0976 18.3449C15.6359 18.0347 15.6812 17.8805 15.5216 17.2759C15.3778 16.7316 15.1122 16.2393 14.8313 15.7577C14.499 15.1877 14.2398 14.604 14.2233 13.9292C14.2147 13.5751 14.112 13.2355 13.9423 12.9178C13.7921 12.6366 13.5595 12.5035 13.246 12.4995C12.3788 12.4883 11.5296 12.5912 10.7036 12.8688C8.56844 13.587 7.26785 15.3311 7.23189 17.5089C7.22327 18.0343 7.45253 18.391 7.91515 18.5991C8.23767 18.7443 8.57368 18.8651 8.91231 18.9684C9.87306 19.2615 10.8649 19.2887 11.8594 19.2538C11.8595 19.2538 11.8597 19.2537 11.8598 19.2536ZM4.24072 13.6443C4.24075 13.6443 4.2408 13.6442 4.24086 13.6442C4.32809 13.6372 4.3895 13.6368 4.44904 13.6272C5.20721 13.5042 5.9137 13.2288 6.5962 12.8922C6.81235 12.7856 7.01463 12.6473 7.21091 12.5065C7.28583 12.4526 7.34914 12.3586 7.37761 12.2702C7.94961 10.5049 8.51599 8.73773 9.08275 6.97093C9.10831 6.89098 9.04979 6.806 8.96588 6.80382C8.78418 6.7991 8.62296 6.86293 8.46805 6.95384C7.80539 7.34287 7.18881 7.79469 6.62805 8.31749C5.80619 9.08328 5.11132 9.94048 4.69927 10.9983C4.37121 11.8404 4.25132 12.716 4.2404 13.6442C4.2404 13.6444 4.24064 13.6445 4.24072 13.6443ZM18.1238 10.7474C18.1238 10.7474 18.1238 10.7475 18.1237 10.7475C18.0635 10.7475 18.0077 10.7394 17.955 10.749C17.6857 10.7966 17.4141 10.8363 17.1489 10.9021C16.5787 11.0437 16.0303 11.2454 15.519 11.5378C15.2328 11.7017 15.1815 11.8095 15.2388 12.1294C15.2594 12.2449 15.2804 12.3616 15.3175 12.4727C15.5471 13.1649 15.7595 13.8638 16.0206 14.5442C16.2483 15.1376 16.5285 15.7116 16.7956 16.2894C16.8757 16.4621 17.1418 16.4215 17.229 16.2523C17.4605 15.8032 17.6377 15.363 17.7557 14.8979C18.0951 13.5606 18.1494 12.1974 18.1374 10.8278C18.1374 10.8048 18.13 10.7815 18.1236 10.7474C18.1236 10.7474 18.1237 10.7473 18.1238 10.7474ZM9.25394 11.597C9.25394 11.5972 9.25408 11.5973 9.25427 11.5973C9.29344 11.6025 9.32295 11.6099 9.35246 11.6099C9.95855 11.6103 10.5605 11.5687 11.1501 11.4167C11.5509 11.3134 11.9312 11.1637 12.2762 10.9318C12.5451 10.7509 12.6691 10.5027 12.6215 10.1846C12.5904 9.97764 12.5541 9.76733 12.4863 9.5704C12.1529 8.60545 11.6255 7.73487 11.1138 6.85723C11.0355 6.72273 10.8999 6.72682 10.816 6.85723C10.7729 6.92449 10.7377 6.9988 10.7111 7.07423C10.5852 7.42982 10.4568 7.78466 10.3414 8.14359C9.98477 9.25606 9.63378 10.3708 9.28129 11.4843C9.27043 11.5181 9.26443 11.5538 9.25395 11.5969C9.25395 11.5969 9.25394 11.5969 9.25394 11.597ZM13.0134 6.535C13.0134 6.53489 13.0132 6.53484 13.0132 6.53492L12.969 6.58078C12.9624 6.58765 12.9601 6.5976 12.9631 6.60665C13.2224 7.39992 13.4706 8.19714 13.7468 8.98482C13.8502 9.27984 14.0094 9.55777 14.1626 9.83273C14.3023 10.0839 14.5245 10.1761 14.8223 10.1493C15.435 10.0946 15.9549 9.82113 16.4707 9.55344C16.6923 9.43841 16.872 9.21592 16.8013 8.97639C16.767 8.86015 16.7087 8.75387 16.6293 8.6545C16.5248 8.52408 16.4195 8.39031 16.2948 8.28033C15.4707 7.55243 14.5368 7.00363 13.4988 6.63392C13.3449 6.57894 13.1756 6.56705 13.0134 6.53511C13.0134 6.5351 13.0134 6.53505 13.0134 6.535ZM5.31378 17.0491C5.50246 17.1181 5.64787 16.9129 5.70345 16.7198C5.84151 16.2402 5.97899 15.7643 6.11186 15.2869C6.16065 15.1122 5.989 14.9498 5.80902 14.9726C5.41175 15.0229 5.04886 15.1309 4.73748 15.3958C4.59588 15.5162 4.47826 15.6741 4.51309 15.8632C4.59813 16.3269 4.79779 16.732 5.21433 16.9987C5.24689 17.0196 5.27996 17.0367 5.31378 17.0491Z" fill="#CCCAC8"/>
</svg>
