<svg width="24" height="24" viewBox="0 0 24 24" fill="none" xmlns="http://www.w3.org/2000/svg">
<path d="M9.88061 9.87891C9.58587 10.1536 9.34946 10.4848 9.18549 10.8528C9.02152 11.2208 8.93336 11.618 8.92625 12.0208C8.91914 12.4236 8.99324 12.8237 9.14412 13.1973C9.29501 13.5708 9.51959 13.9102 9.80446 14.1951C10.0893 14.4799 10.4287 14.7045 10.8022 14.8554C11.1758 15.0063 11.5759 15.0804 11.9787 15.0733C12.3815 15.0662 12.7788 14.978 13.1468 14.814C13.5148 14.6501 13.846 14.4137 14.1206 14.1189" stroke="#D7D8DB" stroke-width="2" stroke-linecap="round" stroke-linejoin="round"/>
<path d="M10.7305 5.08C11.1518 5.02751 11.5759 5.00079 12.0005 5C19.0005 5 22.0005 12 22.0005 12C21.5534 12.9571 20.9927 13.8569 20.3305 14.68" stroke="#D7D8DB" stroke-width="2" stroke-linecap="round" stroke-linejoin="round"/>
<path d="M6.61 6.60938C4.62125 7.964 3.02987 9.82463 2 11.9994C2 11.9994 5 18.9994 12 18.9994C13.9159 19.0045 15.7908 18.4445 17.39 17.3894" stroke="#D7D8DB" stroke-width="2" stroke-linecap="round" stroke-linejoin="round"/>
<path d="M2 2L22 22" stroke="#D7D8DB" stroke-width="2" stroke-linecap="round" stroke-linejoin="round"/>
</svg>
