<svg width="24" height="24" viewBox="0 0 24 24" fill="none" xmlns="http://www.w3.org/2000/svg">
<path d="M12 22C17.5228 22 22 17.5228 22 12C22 6.47715 17.5228 2 12 2C6.47715 2 2 6.47715 2 12C2 17.5228 6.47715 22 12 22Z" stroke="#D7D8DB" stroke-width="2" stroke-linecap="round" stroke-linejoin="round"/>
<path d="M9.09009 9.00008C9.32519 8.33175 9.78924 7.76819 10.4 7.40921C11.0108 7.05024 11.729 6.91902 12.4273 7.03879C13.1255 7.15857 13.7589 7.52161 14.2152 8.06361C14.6714 8.60561 14.9211 9.2916 14.9201 10.0001C14.9201 12.0001 11.9201 13.0001 11.9201 13.0001" stroke="#D7D8DB" stroke-width="2" stroke-linecap="round" stroke-linejoin="round"/>
<path d="M12 17H12.01" stroke="#D7D8DB" stroke-width="2" stroke-linecap="round" stroke-linejoin="round"/>
</svg>
