<svg width="31" height="30" viewBox="0 0 31 30" fill="none" xmlns="http://www.w3.org/2000/svg">
<rect x="0.470215" width="30" height="30" rx="15" fill="#191919"/>
<path d="M8.91139 3.5V18.3083L8.30023 18.3166C7.83868 18.3232 7.41426 18.5883 7.19303 19.0084C6.98507 19.4027 6.9909 19.8663 7.20948 20.2485C7.44397 20.6587 7.8859 20.9133 8.36867 20.9133L8.91139 20.9106V24.4878L6.97021 26.5H21.029L22.9702 24.4878V3.5H8.91139Z" fill="#FFDD51"/>
<path d="M18.361 9.07128C19.3906 9.07128 20.2253 8.2061 20.2253 7.13884C20.2253 6.07159 19.3906 5.20641 18.361 5.20641C17.3314 5.20641 16.4968 6.07159 16.4968 7.13884C16.4968 8.2061 17.3314 9.07128 18.361 9.07128Z" fill="#191919"/>
<path d="M13.3428 8.76497L15.415 8.84031C17.0235 8.89915 18.5519 9.58105 19.6979 10.7524L20.8921 11.9727C21.1053 12.1904 21.3924 12.3125 21.6916 12.3125H22.9702C22.9702 12.8031 22.9702 13.2954 22.9702 13.8061H21.273C20.8045 13.8061 20.3536 13.6213 20.0114 13.2892L18.6236 11.9413C18.483 11.8049 18.2559 11.8412 18.1615 12.0156L16.7551 14.6151C16.5842 14.9313 16.572 15.3135 16.7232 15.6401L20.2395 23.1933C20.5165 23.7933 20.0947 24.4878 19.4528 24.4878C19.1185 24.4878 18.8135 24.2899 18.6676 23.9775L14.8494 16.0526L14.1194 19.6491C14.0192 20.1588 13.5879 20.5256 13.086 20.5289L8.37123 20.5509C7.66564 20.5542 7.16801 19.8393 7.50701 19.1976C7.66723 18.894 7.97281 18.7032 8.30651 18.6982L11.7565 18.6509C12.0997 18.6449 12.3936 18.393 12.4642 18.0449L13.1242 15.0781C13.2154 14.6261 13.3682 14.19 13.5772 13.7825L15.0293 10.9509C15.1333 10.748 14.9943 10.5027 14.7725 10.4989L13.1661 10.4697C12.7942 10.4631 12.4467 10.6611 12.2531 10.9911L11.2769 12.6546C11.0753 12.9977 10.6514 13.1198 10.3082 12.9334C9.93468 12.7305 9.80258 12.2438 10.0185 11.8687L11.0642 10.0529C11.54 9.22415 12.4133 8.73142 13.3428 8.76497Z" fill="#191919"/>
<path d="M19.7643 24.7589C18.9902 24.6165 18.5032 24.9272 18.2486 25.1923L16.8501 26.5H18.9207L20.0163 25.4617C20.2821 25.1796 20.2179 24.8546 19.7643 24.7589Z" fill="#191919"/>
</svg>
