<svg width="24" height="24" viewBox="0 0 24 24" fill="none" xmlns="http://www.w3.org/2000/svg">
<path d="M12 14C13.1046 14 14 13.1046 14 12C14 10.8954 13.1046 10 12 10C10.8954 10 10 10.8954 10 12C10 13.1046 10.8954 14 12 14Z" stroke="#CBCBCB" stroke-width="2" stroke-linecap="round" stroke-linejoin="round"/>
<path d="M4.93006 19.0702C3.05535 17.1949 2.0022 14.6518 2.0022 12.0002C2.0022 9.34853 3.05535 6.80545 4.93006 4.93018" stroke="#CBCBCB" stroke-width="2" stroke-linecap="round" stroke-linejoin="round"/>
<path d="M7.75993 16.24C7.20263 15.6818 6.76087 15.0191 6.45993 14.29C5.85157 12.8205 5.85157 11.1695 6.45993 9.7C6.76087 8.97087 7.20263 8.30823 7.75993 7.75" stroke="#CBCBCB" stroke-width="2" stroke-linecap="round" stroke-linejoin="round"/>
<path d="M16.24 7.75977C16.8028 8.33271 17.2449 9.01281 17.54 9.75977C18.1483 11.2293 18.1483 12.8802 17.54 14.3498C17.2391 15.0789 16.7973 15.7415 16.24 16.2998" stroke="#CBCBCB" stroke-width="2" stroke-linecap="round" stroke-linejoin="round"/>
<path d="M19.0701 4.93018C20.9448 6.80545 21.9979 9.34853 21.9979 12.0002C21.9979 14.6518 20.9448 17.1949 19.0701 19.0702" stroke="#CBCBCB" stroke-width="2" stroke-linecap="round" stroke-linejoin="round"/>
</svg>
