<svg width="31" height="31" viewBox="0 0 31 31" fill="none" xmlns="http://www.w3.org/2000/svg">
<path d="M26.75 27.125C26.75 26 30.5 23.75 30.5 21.3125C30.5 18.5 27.875 16.25 24.6875 15.3125C26 13.8125 26.75 12.125 26.75 10.0625C26.75 4.8125 21.3125 0.5 14.375 0.5C7.8125 0.5 0.5 4.4375 0.5 10.0625C0.5 14 3.5 16.8125 4.8125 17.9375C4.625 20.1875 3.6875 21.125 3.6875 21.125L1.4375 23H4.25C7.25 23 9.6875 22.0625 11.1875 20.9375C11.1875 21.125 11.1875 21.125 11.1875 21.3125C11.1875 25.0625 15.3125 28.0625 20.5625 28.0625C20.9375 28.0625 21.3125 28.0625 21.6875 28.0625C22.4375 29 24.875 30.6875 28.0625 30.6875C28.25 30.5 26.75 29.75 26.75 27.125V27.125ZM14.375 2.375C20.1875 2.375 24.875 5.9375 24.875 10.0625C24.875 14.1875 20 17.75 14 17.75C13.625 17.75 12.875 17.75 12.5 17.75H11.9375L11.75 18.125C11.1875 18.875 8.9375 20.375 5.9375 20.9375C6.125 20.1875 6.125 19.0625 6.125 17.5625V17C4.25 15.5 2.1875 12.875 2.1875 10.25C2.1875 6.125 8.1875 2.375 14.375 2.375V2.375Z" fill="#D7D8DB"/>
</svg>
