<svg width="24" height="24" viewBox="0 0 24 24" fill="none" xmlns="http://www.w3.org/2000/svg">
<path fill-rule="evenodd" clip-rule="evenodd" d="M3.44009 10.8882C8.78796 8.6139 12.3627 7.1439 14.1358 6.42277C19.2263 4.37033 20.2844 4.00977 20.9708 4.00977C21.1138 4.00977 21.457 4.0375 21.6857 4.20392C21.8573 4.34259 21.9145 4.53674 21.9431 4.67542C21.9717 4.8141 22.0003 5.11919 21.9717 5.36882C21.6857 8.17012 20.5132 15.0208 19.8841 18.155C19.6267 19.4863 19.1119 19.9301 18.6257 19.9855C17.5676 20.0687 16.7383 19.2921 15.7087 18.6542C14.1072 17.628 13.408 17.1299 11.8351 16.1314C10.0334 14.9665 11.2059 14.3286 12.2355 13.3024C12.4929 13.025 16.9956 8.75257 17.0814 8.36427C17.0814 8.3088 17.11 8.14239 16.9956 8.05918C16.8812 7.97597 16.7383 8.00371 16.6239 8.03145C16.4523 8.05918 13.8784 9.72332 8.87375 12.9961C8.1302 13.4954 7.47244 13.7173 6.87188 13.7173C6.21412 13.7173 4.9558 13.3567 4.01206 13.0516C2.86813 12.691 1.95299 12.4969 2.03878 11.8867C2.12458 11.5539 2.58215 11.2211 3.44009 10.8882Z" stroke="#D7D8DB" stroke-width="2"/>
</svg>
